<svg width="1440" height="652" fill="none" xmlns="http://www.w3.org/2000/svg"><mask id="a" style="mask-type:alpha" maskUnits="userSpaceOnUse" x="0" y="0" width="1440" height="652"><path fill="#0A182E" d="M0 0h1440v652H0z"/></mask><g mask="url(#a)" fill-rule="evenodd" clip-rule="evenodd" fill="#fff" fill-opacity=".02"><path d="M1665.82 1301.4C581.732 1612.33 138.847 722.251 0 331.911v10.275C142.83 738.049 588.301 1614.01 1666.79 1304.68c1481.97-425.077 1590.91 13.08 1695.1 432.43 27.88 112.19 55.55 223.06 108.73 315.82h4.19c-53.87-92.83-81.61-204.05-109.57-316.66-104.6-421.03-213.96-861.001-1699.35-434.94l-.07.07Z"/><path d="M1658.62 1256.94C592.564 1562.7 146.604 707.152 0 307.375v9.996C150.237 721.622 598.503 1564.66 1659.6 1260.3c1481.97-425.086 1590.9 13.07 1695.09 432.42 32.5 130.72 64.57 259.62 137.24 360.28h4.54c-73.65-100.45-105.86-229.84-138.42-361.05-104.61-421.03-213.97-861-1699.36-434.94l-.07-.07Z"/><path d="M1651.42 1212.55C602.346 1513.49 153.731 689.606 0 282.349v9.647C157.015 703.027 607.727 1515.51 1652.4 1215.91c1481.97-425.084 1590.91 13.07 1695.1 432.42 37.52 150.92 74.41 299.33 173.85 404.67h5.31c-101.04-104.99-138.15-253.96-175.81-405.51-104.61-421.03-213.97-860.998-1699.36-434.94h-.07Z"/><path d="M3343.65 1603.1c-104.61-421.03-213.96-860.997-1699.36-434.94C611.011 1464.48 160.23 669.893 0 256.695v9.507C163.374 682.546 616.112 1466.72 1645.2 1171.52c1481.97-425.083 1590.91 13.07 1695.1 432.42 43.11 173.57 85.46 343.93 223.05 449.06h6.29c-140.18-104.44-182.66-275.56-225.99-449.9Z"/><path d="M3336.45 1558.71c-104.6-421.02-213.96-860.995-1699.35-434.93C618.768 1415.83 166.309 648.293 0 230.481v9.367C169.244 660.316 623.589 1418.07 1638.01 1127.13c1481.96-425.081 1590.9 13.07 1695.09 432.42 49.89 200.76 98.74 397.19 295.16 493.45h8.95c-201.32-94.58-250.51-292.2-300.76-494.29Z"/><path d="M3329.26 1514.26c-104.61-421.03-213.97-861.004-1699.36-434.94C625.965 1367.32 171.969 625.295 0 203.918v9.017C174.694 636.549 630.367 1369.56 1630.81 1082.6c1481.97-425.08 1590.91 13.07 1695.09 432.42 59.68 240.12 117.82 474.09 428.84 537.84h19.99c-325.84-57.88-384.89-295.06-445.47-538.67v.07Z"/><path d="M3185.59 626.204c-104.61-421.028-213.97-860.999-1699.36-434.939C683.055 421.597 234.37 7.909 0-376v6.711c235.698 383.49 685.152 793.891 1487.14 563.84 1481.97-425.082 1590.91 13.072 1695.09 432.422C3313.95 1156.91 3438.62 1656.79 6289 363.507v-3.775C3440.99 1652.1 3316.75 1154.11 3185.59 626.134v.07Z"/><path d="M3192.79 670.592c-104.61-421.027-213.97-860.999-1699.36-434.938C687.108 466.894 235.628 33.843 0-363.907v6.921C237.025 40.344 689.274 469.9 1494.34 239.009c1481.96-425.082 1590.9 13.072 1695.09 432.422C3321.01 1200.95 3445.6 1700.34 6289 411.251v-3.775C3447.98 1695.72 3323.88 1198.15 3192.79 670.662v-.07Z"/><path d="M3207.11 759.439C3102.5 338.412 2993.14-101.56 1507.75 324.501 684.872 560.494 231.505 104.515 0-299.736v6.991C232.903 111.156 687.108 563.43 1508.73 327.786c1481.97-425.082 1590.91 13.072 1695.1 432.422C3335.2 1288.82 3459.65 1787.37 6289 506.529v-3.775C3462.02 1782.75 3337.99 1286.02 3207.11 759.439Z"/><path d="M3214.31 803.828c-104.61-421.028-213.97-861-1699.36-434.938C683.475 607.33 229.269 139.327 0-267.929v6.99c230.736 406.977 685.711 871.205 1515.86 633.114 1481.97-425.082 1590.91 13.072 1695.09 432.422C3342.18 1332.79 3466.57 1830.92 6289 554.133v-3.775c-2819.99 1275.872-2943.95 779.632-3074.69 253.4v.07Z"/><path d="M3221.51 848.216C3116.9 427.189 3007.54-12.783 1522.15 413.278 681.867 654.305 226.893 173.789 0-236.333v7.2C228.43 180.78 684.313 657.171 1523.06 416.633c1481.96-425.081 1590.9 13.072 1695.09 432.422C3349.31 1376.76 3473.55 1874.54 6289 601.877v-3.775C3476 1869.92 3352.18 1374.03 3221.51 848.286v-.07Z"/><path d="M3228.7 892.605c-104.6-421.027-213.96-860.999-1699.35-434.938C680.051 701.28 224.378 207.762 0-205.156v7.2c225.985 412.779 682.496 902.032 1530.25 658.908 1481.97-425.082 1590.91 13.072 1695.1 432.422C3356.37 1420.65 3480.54 1918.02 6289 649.411v-3.774C3482.92 1913.33 3359.23 1417.86 3228.7 892.535v.07Z"/><path d="M3235.9 936.994c-104.61-421.028-213.97-861-1699.36-434.939C678.234 748.255 221.792 241.596 0-173.91v7.27c223.399 415.436 680.679 917.831 1537.45 672.051 1481.97-425.082 1590.91 13.072 1695.1 432.421C3363.43 1464.62 3487.53 1961.64 6289 697.155v-3.774C3489.91 1957.02 3366.29 1461.9 3235.9 937.063v-.069Z"/><path d="M3243.1 981.452c-104.61-421.027-213.97-860.999-1699.36-434.938C675.858 795.37 218.997 274.73 0-143.222v7.48c220.744 417.951 678.513 933.978 1544.65 685.611 1481.97-425.082 1590.91 13.072 1695.09 432.422C3370.55 1508.66 3494.45 2005.26 6289 744.829v-3.774C3496.82 2000.57 3373.35 1505.87 3243.1 981.522v-.07Z"/><path d="M3250.23 1025.84c-104.61-421.027-213.97-860.998-1699.36-434.938C673.552 842.554 216.202 307.584 0-112.534v7.479C217.879 315.204 676.207 845.42 1551.78 594.258c1481.96-425.082 1590.9 13.072 1695.09 432.422C3377.54 1552.56 3501.3 2048.81 6289 792.504v-3.775C3503.74 2044.19 3380.48 1549.84 3250.23 1025.91v-.07Z"/><path d="M3257.42 1070.23c-104.6-421.028-213.96-861-1699.36-434.939C670.827 889.809 213.127 339.81 0-82.336v7.69c214.944 422.285 673.692 967.181 1558.97 713.222C3040.94 213.495 3149.88 651.648 3254.07 1071c130.6 525.46 254.21 1021.36 3034.93-230.962v-3.775C3510.66 2087.67 3387.54 1593.67 3257.42 1070.23Z"/><path d="M3264.62 1114.62c-104.61-421.03-213.97-861.001-1699.36-434.94C667.962 937.063 209.983 371.616 0-52.208v7.69C211.8 379.654 670.827 939.86 1566.17 683.034c1481.97-425.082 1590.91 13.072 1695.1 432.425C3391.73 1640.5 3515.2 2135.97 6289 887.712v-3.775C3517.58 2131.29 3394.59 1637.7 3264.62 1114.62Z"/><path d="M3271.82 1159.08c-104.61-421.031-213.97-861.002-1699.36-434.942C664.747 984.458 206.629 402.793 0-22.499v7.969C208.585 411.18 667.822 987.184 1573.37 727.493c1481.97-425.082 1590.91 13.072 1695.09 432.427 130.33 524.55 253.66 1019.74 3020.54-224.464v-3.775C3524.5 2175.05 3401.65 1681.74 3271.82 1159.15v-.07Z"/><path d="M3279.01 1203.46c-104.6-421.023-213.96-860.994-1699.35-434.933C661.253 1031.92 203.065 433.48 0 7v7.97c205.091 427.038 664.328 1019.68 1580.57 756.912C3062.53 346.8 3171.47 784.954 3275.66 1204.3c130.25 524.14 253.31 1018.98 3013.34-221.24v-3.775C3531.34 2218.6 3408.71 1725.64 3279.01 1203.46Z"/><path d="M3286.14 1247.85c-104.6-421.024-213.96-860.995-1699.36-434.935C657.41 1079.46 199.361 463.399 0 36.15v8.178C201.458 472.276 660.764 1082.11 1587.76 816.271c1481.97-425.082 1590.91 13.072 1695.1 432.419 130.11 523.65 253.03 1018.14 3006.14-217.96v-3.77c-2750.74 1235.26-2873.16 742.65-3002.86 220.96v-.07Z"/><path d="M3293.34 1292.24c-104.61-421.025-213.97-860.997-1699.36-434.936C653.357 1127.13 195.448 492.688 0 65.02v8.249c197.614 428.507 656.641 1056.521 1594.89 787.39 1481.97-425.082 1590.91 13.072 1695.1 432.421 130.04 523.23 252.88 1017.23 2999.01-214.74v-3.78c-2743.68 1231.14-2866.11 738.95-2995.66 217.75v-.07Z"/><path d="M3300.54 1336.63c-104.61-421.027-213.97-860.998-1699.36-434.937C648.675 1174.87 191.255 521.069 0 93.471v8.458C193.561 530.576 652.379 1177.39 1602.09 905.048 3084.06 479.966 3193 918.12 3297.18 1337.47 3427.09 1860.21 3550 2353.79 6289 1125.87v-3.77c-2736.62 1227.01-2859.05 735.31-2988.46 214.53Z"/><path d="M3307.73 1381.09c-104.6-421.028-213.96-861-1699.35-434.939C643.924 1222.76 186.923 548.751 0 121.781v8.459c189.229 428.297 647.557 1095.03 1609.29 819.196 1481.96-425.082 1590.9 13.072 1695.09 432.424 129.76 522.32 252.68 1015.34 2984.62-208.38v-3.78c-2729.57 1222.89-2851.99 731.68-2981.27 211.32v.07Z"/><path d="M3314.93 1425.48c-104.61-421.03-213.96-861.001-1699.36-434.941C638.333 1270.78 182.171 575.314 0 149.463v8.738C184.687 585.59 642.317 1273.23 1616.48 993.825c1481.97-425.082 1590.91 13.075 1695.1 432.425 129.69 521.82 252.47 1014.43 2977.42-205.17v-3.77c-2722.58 1218.76-2844.93 727.97-2974.07 208.1v.07Z"/><path d="M3322.13 1469.87c-104.61-421.03-213.97-861.002-1699.36-434.94C632.464 1318.95 177.28 600.899 0 176.935v8.948C179.935 611.734 636.726 1321.32 1623.68 1038.28c1481.97-425.078 1590.91 13.08 1695.1 432.43 129.55 521.33 252.32 1013.52 2970.22-201.96v-3.77c-2715.52 1214.64-2837.81 724.34-2966.87 204.96v-.07Z"/><path d="M3199.98 714.981c-104.6-421.028-213.96-860.999-1699.35-434.939C686.2 513.659 233.671 69.424 0-331.542v6.781C234.999 75.855 688.296 516.665 1501.53 283.398 2983.5-141.684 3092.44 296.47 3196.63 715.82c131.44 529.03 256.03 1028 3092.37-256.965v-3.775C3455.04 1739.2 3330.93 1242.05 3199.98 714.981Z"/></g></svg>