<svg width="996" height="621" fill="none" xmlns="http://www.w3.org/2000/svg"><g opacity=".4" fill-rule="evenodd" clip-rule="evenodd" fill="#37678B"><path d="M221.881 202.571C15.128 148.525-1.345-21.022.931-90.313l-.688 1.49c-1.961 70.455 15.9 238.192 221.587 291.96 282.638 73.876 272.036 147.365 261.876 217.692-2.718 18.816-5.382 37.421-2.461 55.733l.719.383c-3.036-18.386-.36-37.047 2.373-55.931 10.201-70.609 20.852-144.399-262.439-218.447l-.017.004Z"/><path d="M223.619 195.467C20.304 142.32.995-22.503 2.57-93.87l-.668 1.45c-1.251 72.348 19.29 235.566 221.66 288.463 282.639 73.877 272.037 147.365 261.876 217.692-3.164 21.924-6.279 43.546-.542 64.786l.78.415c-5.92-21.299-2.796-43.004.389-65.006 10.201-70.609 20.852-144.399-262.439-218.447l-.007-.016Z"/><path d="M225.351 188.373C25.271 136.079 3.391-24.394 4.243-97.498L3.6-96.1c-.542 73.952 22.46 232.965 221.696 285.049 282.639 73.877 272.036 147.365 261.876 217.692-3.652 25.313-7.244 50.204 2.772 74.57l.911.485c-10.315-24.462-6.722-49.453-3.052-74.87 10.201-70.609 20.853-144.399-262.439-218.447l-.012-.006Z"/><path d="M489.535 399.732c10.201-70.609 20.852-144.399-262.439-218.447C30.034 129.766 5.823-26.658 5.958-101.218l-.635 1.378c.194 75.304 25.437 230.397 221.705 281.695 282.638 73.877 272.036 147.365 261.876 217.692-4.207 29.108-8.331 57.68 8.243 85.504l1.079.575c-17.065-27.959-12.913-56.655-8.691-85.894Z"/><path d="M491.268 392.638c10.2-70.609 20.852-144.399-262.439-218.447C34.617 123.422 8.309-29.234 7.711-105.019l-.626 1.358c.924 76.439 28.21 227.848 221.675 278.422 282.639 73.877 272.037 147.365 261.876 217.692-4.862 33.671-9.614 66.617 17.647 98.534l1.535.817c-28.213-32.121-23.441-65.271-18.55-99.166Z"/><path d="M493.005 385.534c10.201-70.609 20.852-144.399-262.439-218.447C39.095 117.046 10.818-32.051 9.486-108.87l-.602 1.307c1.65 77.393 30.816 225.336 221.618 275.21 282.639 73.877 272.037 147.365 261.876 217.692-5.814 40.271-11.482 79.509 37.611 117.192l3.429 1.828c-52.027-38.186-46.301-77.974-40.408-118.835l-.005.01Z"/><path d="M527.725 243.641c10.2-70.609 20.852-144.4-262.439-218.447C112.109-14.852 62.794-115.86 48.253-192.951l-.448.973C62.6-114.825 112.267-14.224 265.222 25.753 547.861 99.63 537.259 173.118 527.098 243.446c-12.83 88.878-24.861 172.753 550.562 245.878l.25-.548c-574.953-73.038-562.976-156.602-550.18-245.145l-.005.01Z"/><path d="M525.992 250.735c10.201-70.609 20.853-144.399-262.439-218.447C109.776-7.914 61.276-111.983 47.445-191.198l-.463 1.004c14.1 79.281 62.965 182.914 216.503 223.051 282.638 73.877 272.036 147.365 261.876 217.693-12.826 88.805-24.837 172.603 549.109 245.696l.25-.547c-573.48-72.998-561.507-156.488-548.732-244.954l.004-.01Z"/><path d="M522.51 264.926c10.201-70.609 20.853-144.399-262.439-218.447C103.135 5.453 55.845-102.114 43.155-181.894l-.467 1.014C55.64-101.023 103.323 6.083 260.019 47.045c282.639 73.877 272.037 147.365 261.876 217.693-12.801 88.654-24.779 172.317 546.205 245.322l.25-.547c-570.518-72.91-558.589-156.271-545.84-244.587Z"/><path d="M520.778 272.02c10.2-70.609 20.852-144.399-262.439-218.447C99.765 12.115 53.134-97.27 41.029-177.282l-.467 1.013C52.937-96.164 99.952 12.746 258.275 54.133c282.639 73.877 272.036 147.365 261.876 217.692-12.797 88.581-24.76 172.177 544.759 245.137l.26-.547C496.124 443.546 508.032 360.262 520.782 272.01l-.004.01Z"/><path d="M519.045 279.114c10.201-70.609 20.852-144.399-262.439-218.447C96.349 18.78 50.423-92.492 38.916-172.7l-.48 1.044c11.783 80.32 58.14 191.076 218.101 232.894 282.639 73.877 272.037 147.365 261.876 217.692-12.776 88.503-24.739 172.036 543.307 244.955l.25-.547C494.402 450.52 506.311 367.299 519.04 279.124l.005-.01Z"/><path d="M517.312 286.208c10.201-70.609 20.853-144.399-262.439-218.447C92.897 25.424 47.72-87.796 36.833-168.18l-.482 1.044C47.524-86.625 93.13 26.053 254.81 68.32c282.639 73.877 272.037 147.366 261.877 217.693-12.773 88.43-24.72 171.895 541.854 244.763l.26-.547c-566.113-72.783-554.208-155.93-541.483-244.031l-.005.01Z"/><path d="M515.58 293.302c10.2-70.609 20.852-144.399-262.439-218.447C89.445 32.069 45.015-83.127 34.744-163.651l-.486 1.055c10.551 80.66 55.41 195.314 218.814 238.02 282.639 73.877 272.037 147.366 261.876 217.693-12.763 88.346-24.699 171.754 540.402 244.582l.26-.548C490.965 464.42 502.858 381.33 515.575 293.312l.005-.01Z"/><path d="M513.842 300.406c10.201-70.609 20.853-144.399-262.439-218.447C85.888 38.682 42.32-78.579 32.693-159.201l-.5 1.084C42.12-77.334 86.151 39.341 251.334 82.529c282.638 73.876 272.036 147.365 261.876 217.692-12.748 88.279-24.691 171.607 538.959 244.39l.25-.548C489.24 471.366 501.13 388.35 513.838 300.416l.004-.01Z"/><path d="M512.098 307.494c10.2-70.609 20.852-144.399-262.439-218.447C82.338 45.313 39.645-74.071 30.641-154.752l-.5 1.085C39.423-72.812 82.601 45.971 249.59 89.616c282.639 73.877 272.037 147.365 261.876 217.693-12.739 88.195-24.683 171.46 537.514 244.214l.25-.547c-561.719-72.653-549.817-155.599-537.137-243.472l.005-.01Z"/><path d="M510.365 314.588c10.201-70.609 20.852-144.399-262.439-218.448C78.712 51.916 36.963-69.68 28.622-150.373l-.514 1.114C36.751-68.379 79.021 52.572 247.862 96.7c282.639 73.877 272.037 147.365 261.876 217.692-12.723 88.128-24.668 171.33 536.062 244.023l.25-.547c-560.259-72.608-548.356-155.491-535.685-243.28Z"/><path d="M508.632 321.682c10.201-70.609 20.853-144.4-262.439-218.448C75.061 58.504 34.297-65.356 26.608-146.005l-.514 1.115c7.977 80.866 49.272 204.062 220.031 248.694 282.639 73.877 272.036 147.365 261.876 217.692-12.719 88.055-24.66 171.183 534.609 243.831l.26-.547c-558.808-72.563-546.91-155.373-534.238-243.098Z"/><path d="M506.895 328.786c10.201-70.609 20.852-144.399-262.439-218.447C71.341 65.082 31.638-61.141 24.622-141.698l-.532 1.156c7.323 80.795 47.597 206.3 220.297 251.45 282.639 73.877 272.037 147.365 261.876 217.693-12.71 87.97-24.656 171.045 533.157 243.648l.26-.547c-557.357-72.508-545.453-155.264-532.79-242.906l.005-.01Z"/><path d="M505.162 335.88c10.201-70.609 20.853-144.4-262.439-218.448C67.569 71.644 28.975-57.018 22.65-137.421l-.532 1.156c6.635 80.668 45.796 208.586 220.537 254.267 282.638 73.877 272.036 147.365 261.876 217.692-12.694 87.904-24.665 170.902 531.709 243.457l.25-.547c-555.903-72.47-543.987-155.156-531.328-242.724Z"/><path d="M503.418 342.967c10.2-70.609 20.852-144.399-262.439-218.447C63.732 78.185 26.339-53.02 20.702-133.194l-.547 1.185C26.105-51.54 64.13 78.877 240.922 125.096c282.639 73.877 272.037 147.365 261.876 217.692-12.685 87.82-24.656 170.755 530.252 243.275l.26-.547c-554.452-72.425-542.523-155.041-529.897-242.539l.005-.01Z"/><path d="M501.685 350.061c10.201-70.609 20.852-144.399-262.439-218.447C59.85 84.726 23.71-49.131 18.772-129.009l-.552 1.196c5.255 80.198 42.016 213.225 220.957 259.996 282.639 73.877 272.037 147.366 261.877 217.693-12.67 87.752-24.62 170.61 528.816 243.089l.25-.547c-552.958-72.377-541.057-154.933-528.44-242.347l.005-.01Z"/><path d="M499.952 357.155c10.201-70.609 20.853-144.399-262.439-218.447C55.855 91.221 21.093-45.399 16.87-124.884l-.566 1.227c4.55 79.847 40.018 215.581 221.141 262.934 282.639 73.877 272.036 147.365 261.876 217.693-12.661 87.668-24.571 170.472 527.369 242.887l.26-.547c-551.479-72.33-539.611-154.815-526.998-242.155Z"/><path d="M498.215 364.259c10.201-70.609 20.852-144.399-262.439-218.447C51.839 97.729 18.5-41.782 14.977-120.779l-.565 1.226c3.83 79.401 37.882 217.979 221.3 265.924 282.639 73.877 272.037 147.365 261.876 217.693-12.656 87.595-24.529 170.317 525.922 242.695l.25-.547c-549.985-72.283-538.15-154.697-525.54-241.963l-.005.01Z"/><path d="M496.482 371.353c10.201-70.609 20.853-144.399-262.439-218.447C47.67 104.18 15.909-38.364 13.127-116.765l-.584 1.266C15.654-36.645 48.19 104.899 233.98 153.465c282.638 73.877 272.036 147.365 261.876 217.693-12.636 87.517-24.505 170.166 524.474 242.503l.25-.547c-548.513-72.242-536.694-154.588-524.093-241.771l-.005.01Z"/><path d="M494.75 378.447c10.2-70.609 20.852-144.399-262.439-218.447C43.443 110.627 13.36-35.103 11.291-112.782l-.599 1.297c2.4 78.196 33.324 222.846 221.55 272.054 282.639 73.877 272.037 147.365 261.876 217.693-12.627 87.434-24.468 170.021 523.022 242.312l.25-.548c-547.024-72.194-535.225-154.464-522.645-241.569l.005-.01Z"/><path d="M524.26 257.829c10.2-70.609 20.852-144.399-262.439-218.447C106.494-1.216 58.562-107.004 45.281-186.505l-.453.983C58.36-105.95 106.653-.589 261.752 39.951c282.639 73.877 272.037 147.365 261.876 217.693-12.817 88.721-24.8 172.458 547.652 245.504l.26-.547C499.544 429.65 511.489 346.222 524.26 257.829Z"/></g></svg>