<?xml version="1.0" encoding="UTF-8"?>
<svg id="Layer_2" data-name="Layer 2" xmlns="http://www.w3.org/2000/svg" viewBox="0 0 65 5.38">
  <defs>
    <style>
      .cls-1 {
        fill: #d2a66c;
      }
    </style>
  </defs>
  <g id="Layer_1-2" data-name="Layer 1">
    <g>
      <path class="cls-1" d="m5.34,2.61c0,.38-.07.74-.2,1.08s-.31.63-.55.88c-.24.25-.53.45-.87.59-.34.14-.72.21-1.14.21s-.79-.07-1.11-.2-.59-.31-.81-.54c-.22-.23-.39-.5-.5-.82-.11-.32-.17-.67-.17-1.05s.07-.75.2-1.08.31-.63.55-.88c.24-.25.53-.45.87-.59.34-.14.72-.21,1.14-.21s.79.07,1.11.2c.32.13.59.31.81.54.22.23.39.5.5.82.11.32.17.67.17,1.05Zm-.93.12c0-.27-.03-.55-.1-.82-.06-.27-.17-.51-.31-.73-.14-.21-.33-.39-.55-.52s-.49-.2-.81-.2-.56.07-.77.2-.39.3-.53.51c-.14.21-.24.44-.31.7-.07.26-.1.52-.1.77,0,.27.03.55.1.82.06.27.17.51.31.73.14.22.33.39.55.52.22.13.49.2.81.2s.56-.07.77-.2c.21-.13.39-.3.53-.51s.24-.44.31-.7.1-.52.1-.77Z"/>
      <path class="cls-1" d="m7.09,3c0,.37,0,.76.02,1.15.01.39.04.77.09,1.15h-1c.05-.43.08-.87.09-1.3,0-.43.02-.86.02-1.3s0-.87-.01-1.3c0-.43-.04-.86-.09-1.3.05,0,.13,0,.23.01.1,0,.21,0,.32,0,.11,0,.22,0,.33,0h.28c.12,0,.26,0,.4,0,.14,0,.29,0,.43,0,.14,0,.29,0,.43-.01.14,0,.28,0,.4-.01l-.02.64c-.27-.04-.53-.07-.79-.1-.25-.02-.52-.04-.79-.04-.04,0-.1,0-.17,0-.07,0-.13,0-.18.01v1.89c.05,0,.11,0,.17.01.06,0,.12,0,.17,0,.23,0,.48,0,.73-.02.25-.01.49-.03.73-.06v.63c-.23-.02-.48-.04-.73-.05-.25-.01-.5-.02-.73-.02-.06,0-.11,0-.17,0-.06,0-.11,0-.16.01Z"/>
      <path class="cls-1" d="m10.86,3c0,.37,0,.76.02,1.15.01.39.04.77.09,1.15h-1c.05-.43.08-.87.09-1.3,0-.43.02-.86.02-1.3s0-.87-.01-1.3c0-.43-.04-.86-.09-1.3.05,0,.13,0,.23.01.1,0,.21,0,.32,0,.11,0,.22,0,.33,0h.28c.12,0,.26,0,.4,0,.14,0,.29,0,.43,0,.14,0,.29,0,.43-.01.14,0,.28,0,.4-.01l-.02.64c-.27-.04-.53-.07-.79-.1-.25-.02-.52-.04-.79-.04-.04,0-.1,0-.17,0-.07,0-.13,0-.18.01v1.89c.05,0,.11,0,.17.01.06,0,.12,0,.17,0,.23,0,.48,0,.73-.02.25-.01.49-.03.73-.06v.63c-.23-.02-.48-.04-.73-.05-.25-.01-.5-.02-.73-.02-.06,0-.11,0-.17,0-.06,0-.11,0-.16.01Z"/>
      <path class="cls-1" d="m13.75,5.3c.05-.43.08-.87.09-1.3,0-.43.02-.86.02-1.3s0-.87-.02-1.3c0-.43-.04-.86-.09-1.3h1c-.05.43-.08.87-.09,1.3,0,.43-.01.86-.01,1.3s0,.87.01,1.3c.01.43.04.86.09,1.3h-1Z"/>
      <path class="cls-1" d="m19.8,1.3h-.16c-.12-.29-.3-.51-.55-.64-.25-.13-.51-.2-.78-.2-.32,0-.59.06-.82.19-.23.12-.41.29-.56.5s-.25.44-.32.71c-.07.27-.1.54-.1.83s.04.57.12.83.2.48.35.67.35.33.59.44c.24.11.51.16.83.16.29,0,.58-.04.86-.12.28-.08.55-.19.82-.33l.07.42-1.05.49c-.07.02-.14.05-.23.06-.09.01-.18.03-.27.04-.09,0-.18.02-.27.02s-.17,0-.24,0c-.38,0-.72-.06-1.03-.18-.31-.12-.57-.29-.79-.51-.22-.22-.39-.49-.51-.81-.12-.31-.18-.67-.18-1.07,0-.44.07-.83.22-1.18.15-.35.36-.65.62-.89.26-.24.58-.43.95-.55s.77-.19,1.19-.19c.22,0,.47.02.73.06.26.04.49.11.7.23l-.21,1.02Z"/>
      <path class="cls-1" d="m21.01,5.3c.05-.43.08-.87.09-1.3,0-.43.02-.86.02-1.3s0-.87-.02-1.3c0-.43-.04-.86-.09-1.3h1c-.05.43-.08.87-.09,1.3,0,.43-.01.86-.01,1.3s0,.87.01,1.3c.01.43.04.86.09,1.3h-1Z"/>
      <path class="cls-1" d="m25.33.1c.31.84.65,1.71,1.02,2.59s.76,1.75,1.18,2.6h-1.08c-.1-.28-.21-.56-.31-.82-.1-.26-.21-.53-.32-.81h-1.92c-.11.27-.21.55-.3.82-.09.27-.18.54-.28.82h-.84c.12-.24.24-.51.37-.81.13-.3.27-.61.41-.93.14-.32.28-.64.42-.97.14-.33.27-.64.4-.95.12-.3.24-.59.35-.85s.19-.49.27-.69h.63Zm.32,3.06c-.12-.31-.24-.64-.39-1-.14-.36-.28-.69-.41-1.01-.06.15-.13.32-.21.49-.07.17-.14.35-.21.53s-.14.35-.2.52c-.06.17-.12.33-.17.47h1.59Z"/>
      <path class="cls-1" d="m28.92,2.81v.96c0,.17,0,.34,0,.51,0,.17,0,.32,0,.45.05.02.13.03.25.04.12,0,.23.01.33.01.28,0,.55-.01.81-.04.26-.02.52-.05.78-.09l-.02.65c-.29,0-.59-.02-.87-.03-.29,0-.58-.01-.88-.01-.22,0-.45,0-.66.01-.22,0-.43.02-.64.03.05-.43.08-.86.09-1.3s.02-.88.02-1.31,0-.85-.02-1.29c-.01-.44-.04-.87-.09-1.29h1c-.05.43-.08.88-.09,1.35,0,.46-.01.92-.01,1.36Z"/>
      <path class="cls-1" d="m34.09,5.3c.05-.43.08-.87.09-1.3,0-.43.02-.86.02-1.3s0-.87-.02-1.3c0-.43-.04-.86-.09-1.3h1.36c.22,0,.44,0,.65.03.21.02.4.06.56.13.21.09.38.22.5.39.12.17.18.42.18.73,0,.27-.04.5-.13.7-.09.2-.21.37-.36.51-.15.14-.33.24-.55.31-.21.07-.44.1-.69.1-.07,0-.14,0-.2,0-.06,0-.13-.01-.19-.03l-.11-.3h.1c.36,0,.66-.09.89-.27s.34-.46.34-.83c0-.34-.09-.59-.27-.75-.18-.16-.44-.24-.78-.24h-.21c-.07,0-.14,0-.21,0v2.32c0,.39,0,.79.02,1.2.01.41.04.81.08,1.2h-1Z"/>
      <path class="cls-1" d="m40.02.1c.31.84.65,1.71,1.02,2.59s.76,1.75,1.18,2.6h-1.08c-.1-.28-.21-.56-.31-.82-.1-.26-.21-.53-.32-.81h-1.92c-.11.27-.21.55-.3.82-.09.27-.18.54-.28.82h-.84c.12-.24.24-.51.37-.81.13-.3.27-.61.41-.93.14-.32.28-.64.42-.97.14-.33.27-.64.4-.95.12-.3.24-.59.35-.85s.19-.49.27-.69h.63Zm.32,3.06c-.12-.31-.24-.64-.39-1-.14-.36-.28-.69-.41-1.01-.06.15-.13.32-.21.49-.07.17-.14.35-.21.53s-.14.35-.2.52c-.06.17-.12.33-.17.47h1.59Z"/>
      <path class="cls-1" d="m42.72,5.3c.05-.43.08-.88.09-1.33,0-.45.02-.9.02-1.33s0-.86-.02-1.27c0-.4-.04-.82-.09-1.26h1.54c.15,0,.3,0,.45,0s.29.02.42.04c.3.06.55.19.75.39.19.2.29.49.29.87,0,.19-.03.38-.09.55-.06.17-.15.32-.27.46-.12.14-.26.25-.42.35-.16.09-.35.16-.55.19.1.01.19.06.27.13s.15.15.2.24c.12.17.23.35.33.51.1.17.2.33.3.49s.2.32.3.48c.1.16.21.32.32.48h-1.12c-.07-.13-.15-.27-.22-.43s-.16-.31-.25-.47c-.09-.16-.18-.32-.27-.47-.09-.15-.19-.29-.28-.42-.17-.23-.37-.34-.61-.34h-.09s-.05,0-.09,0c0,.35.02.72.03,1.09s.03.72.07,1.04h-1Zm.89-2.64c.06,0,.13.02.18.02.06,0,.11,0,.17,0,.2,0,.37-.02.53-.06.16-.04.3-.11.41-.2.11-.09.2-.2.27-.34.06-.14.09-.3.09-.49,0-.36-.1-.62-.28-.77-.19-.15-.46-.22-.82-.22h-.55v2.07Z"/>
      <path class="cls-1" d="m48.24,5.3c.05-.43.08-.87.09-1.3.01-.43.02-.86.02-1.3,0-.36,0-.71,0-1.06,0-.35-.02-.69-.05-1.03-.04,0-.07,0-.12,0h-.1c-.24,0-.5.01-.77.03-.27.02-.52.05-.76.09V.1c.35.02.72.03,1.09.04s.74.01,1.11.01.73,0,1.11-.01c.37,0,.74-.02,1.1-.04v.63c-.27-.04-.53-.07-.79-.09-.25-.02-.51-.03-.78-.03h-.1s-.08,0-.11,0c-.02.36-.03.71-.03,1.04s0,.69,0,1.04c0,.43,0,.87.02,1.3,0,.43.04.86.09,1.3h-1Z"/>
      <path class="cls-1" d="m55.46,5.3c-.54-.68-1.09-1.35-1.63-2s-1.1-1.31-1.68-1.97c0,.06,0,.12,0,.21,0,.09,0,.17,0,.27v.54c0,.47.01.96.04,1.46.03.51.07,1,.12,1.49h-.78c.04-.48.07-.96.09-1.43s.03-.96.03-1.45v-.37c0-.32,0-.65-.03-.97-.02-.32-.04-.64-.08-.97h.82c.48.64.98,1.27,1.48,1.89s1.03,1.22,1.57,1.81v-.68c0-.5-.01-1.01-.04-1.51-.03-.5-.07-1.01-.12-1.51h.78c-.04.51-.07,1.02-.09,1.53-.02.5-.03,1.02-.03,1.54,0,.35,0,.71,0,1.06,0,.35.01.71.03,1.07h-.49Z"/>
      <path class="cls-1" d="m57.26,5.3c.05-.43.08-.87.09-1.29,0-.43.02-.86.02-1.3s0-.87-.01-1.3c0-.43-.04-.86-.09-1.3.04,0,.12,0,.21.01s.2,0,.32,0,.23,0,.34,0h.26c.16,0,.32,0,.45,0,.14,0,.27,0,.4,0s.26,0,.39-.01c.13,0,.28,0,.44-.01l-.02.64c-.27-.04-.53-.07-.78-.1-.25-.02-.51-.04-.78-.04-.04,0-.1,0-.18,0s-.14,0-.18.01v1.75c.05,0,.11,0,.18.01.06,0,.12,0,.17,0,.22,0,.44,0,.68-.02.24-.01.47-.03.69-.06v.63c-.23-.02-.47-.04-.7-.05s-.47-.02-.7-.02c-.05,0-.11,0-.16,0-.06,0-.1,0-.15.01v1.53c0,.11,0,.21,0,.32.05.02.14.03.26.04.12,0,.24.01.34.01.28,0,.56-.02.83-.05.27-.03.52-.06.75-.08l-.02.65c-.28,0-.57-.02-.86-.03s-.58-.01-.89-.01c-.22,0-.45,0-.67.01-.22,0-.44.02-.65.03Z"/>
      <path class="cls-1" d="m61.16,5.3c.05-.43.08-.88.09-1.33,0-.45.02-.9.02-1.33s0-.86-.02-1.27c0-.4-.04-.82-.09-1.26h1.54c.15,0,.3,0,.45,0s.29.02.42.04c.3.06.55.19.75.39.19.2.29.49.29.87,0,.19-.03.38-.09.55-.06.17-.15.32-.27.46-.12.14-.26.25-.42.35-.16.09-.35.16-.55.19.1.01.19.06.27.13s.15.15.2.24c.12.17.23.35.33.51.1.17.2.33.3.49s.2.32.3.48c.1.16.21.32.32.48h-1.12c-.07-.13-.15-.27-.22-.43s-.16-.31-.25-.47c-.09-.16-.18-.32-.27-.47-.09-.15-.19-.29-.28-.42-.17-.23-.37-.34-.61-.34h-.09s-.05,0-.09,0c0,.35.02.72.03,1.09s.03.72.07,1.04h-1Zm.89-2.64c.06,0,.13.02.18.02.06,0,.11,0,.17,0,.2,0,.37-.02.53-.06.16-.04.3-.11.41-.2.11-.09.2-.2.27-.34.06-.14.09-.3.09-.49,0-.36-.1-.62-.28-.77-.19-.15-.46-.22-.82-.22h-.55v2.07Z"/>
    </g>
  </g>
</svg>