<svg width="390" height="725" fill="none" xmlns="http://www.w3.org/2000/svg"><mask id="a" style="mask-type:alpha" maskUnits="userSpaceOnUse" x="0" y="0" width="390" height="725"><path fill="#D9D9D9" d="M0 0h390v725H0z"/></mask><g mask="url(#a)"><g style="mix-blend-mode:luminosity" opacity=".05" clip-path="url(#b)" fill-rule="evenodd" clip-rule="evenodd"><path d="M27.665 579.412c-17.639 1.871-46.838-22.165-53.85-39.854-8.278 14.272-3.878 33.133 6.285 54.061-16.875 9.243-31.512 19.332-29.89 35.231 14.45-5.484 45.31-6.786 52.955 3.678 4.978-18.991 13.35-36.875 24.5-53.132v.016Zm-93.397 143.726c5.743 15.2 24.128 25.843 48.256 34.354-4.457 17.005-6.62 33.1 7.402 43.401 5.724-12.661 25.88-32.156 39.81-30.171-11.393-15.932-20.083-33.491-25.509-52.189-11.504 11.798-50.866 12.726-69.96 4.622v-.017Zm222.278-227.42c-14.227-9.357-15.457-44.654-6.022-61.611-17.416 4.996-29.591 21.041-39.343 42.148-19.43-3.906-37.982-5.81-49.692 6.444 14.898 5.126 38.187 23.678 34.346 35.802 18.478-10.22 38.933-17.983 60.711-22.783Zm325.186 127.128c-5.65-15.2-24.091-25.794-48.256-34.321 4.531-16.973 6.638-33.1-7.402-43.385-5.836 12.905-26.776 33.051-40.742 30.008 11.71 16.013 20.641 33.719 26.198 52.612 11.206-12.042 50.997-13.019 70.221-4.898l-.019-.016ZM360.906 468.622c-16.371-7.258-37.982-3.401-61.96 5.501-10.535-14.793-22.133-27.535-40.369-26.135 6.414 12.888 7.831 40.488-4.866 46.542 22.002 4.231 42.717 11.521 61.531 21.285-2.405-15.378 25.303-41.041 45.664-47.209v.016Zm28.267 297.901c17.733-1.009 46.075 22.523 52.974 39.984 8.316-14.288 3.878-33.133-6.284-54.142 16.949-9.194 31.568-19.267 29.927-35.232-14.376 5.485-44.769 6.819-52.731-3.384-4.811 18.86-12.978 36.615-23.886 52.774Zm-128.545 84.654c13.071 10.48 14.022 44.248 4.83 60.716 17.434-4.979 29.572-21.041 39.361-42.115 19.467 3.922 37.926 5.809 49.71-6.477-14.394-4.947-36.564-22.343-34.644-34.451v-.032c-18.086 9.959-38 17.575-59.257 22.359ZM100.87 831.373c.895 15.459-25.937 39.983-45.776 46.021 16.352 7.225 37.963 3.385 61.923-5.484 10.591 14.792 22.133 27.502 40.462 26.118-6.172-12.384-7.813-38.226 3.281-45.711-21.405-4.297-41.543-11.441-59.89-20.944ZM82.615 526.377c-17.229-4.003-33.768-36.111-32.462-54.874-13.929 10.399-18.143 29.308-17.92 52.042-19.69 2.864-37.59 7.307-43.034 22.588 15.886-.228 45.235 8.966 47.36 21.367 12.792-15.72 28.343-29.618 46.056-41.123Zm293.45 37.103c4.699-14.988 41.394-29.325 62.8-28.234-11.933-12.173-33.563-15.818-59.63-15.639-3.319-17.152-8.372-32.807-25.862-37.575.261 13.962-10.441 39.87-24.743 41.367 18.087 11.098 34.141 24.638 47.435 40.081ZM238.215 492.057c-9.081-13.36 5.277-46.428 21.424-58.974-18.292-1.205-36.546 9.568-54.819 25.777-16.203-10.106-32.519-18.015-48.722-10.611 11.542 9.748 24.967 34.76 15.886 44.622a240.367 240.367 0 0 1 36.024-2.701c10.237 0 20.343.651 30.207 1.887Zm96.344 327.926c16.781 5.158 32.499 36.224 31.287 54.499 13.91-10.35 18.087-29.292 17.901-51.993 19.69-2.913 37.553-7.356 43.053-22.604-15.532.244-43.911-8.56-47.118-20.521-12.549 15.492-27.783 29.211-45.123 40.635v-.016ZM.087 646.899c-15.662 7.323-52.824-5.078-66.976-18.975-1.361 15.948 10.908 31.88 29.554 47.86-11.58 14.158-20.716 28.348-12.176 42.571 10.927-9.894 38.43-21.285 50.27-14.418a161.93 161.93 0 0 1-2.89-30.366c0-9.048.764-17.95 2.218-26.656v-.016ZM178.511 855.164c7.477 14.061-6.488 45.598-22.151 57.755 18.273 1.204 36.49-9.52 54.819-25.81 16.241 10.155 32.519 18.08 48.722 10.626-11.057-9.324-23.904-32.676-16.968-43.303-11.374 1.644-23.046 2.539-34.924 2.539a240.88 240.88 0 0 1-29.498-1.807Zm-138.875-71.83c-5.724 14.662-41.487 28.511-62.501 27.42 11.915 12.124 33.507 15.818 59.63 15.606 3.282 17.201 8.372 32.824 25.862 37.641-.28-13.523 9.714-38.129 23.289-41.123-17.64-11.017-33.283-24.378-46.261-39.528l-.019-.016Zm413.717-113.117c11.56-14.19 20.641-28.332 12.176-42.522-11.001 9.91-38.821 21.416-50.512 14.288a159.459 159.459 0 0 1 3.132 31.587c0 8.641-.727 17.135-2.032 25.467 15.774-7.16 52.693 5.208 66.79 19.057 1.38-15.981-10.964-31.945-29.554-47.893v.016Z" fill="#DAB16F"/><path d="M418.149 673.553c0 101.302-94.087 183.418-210.14 183.418-116.052 0-210.14-82.116-210.14-183.418s94.088-183.385 210.14-183.385c116.053 0 210.14 82.116 210.14 183.385Z" fill="#3256A3"/><path d="M315.32 673.551c0 51.733-48.05 93.67-107.326 93.67-59.275 0-107.289-41.921-107.289-93.67s48.032-93.653 107.289-93.653c59.257 0 107.326 41.936 107.326 93.653Z" fill="#BAE5F6"/><path d="M208.009 562.113c2.835 0 5.147 2.018 5.147 4.524 0 2.506-2.312 4.491-5.147 4.491-2.834 0-5.165-2.034-5.146-4.507 0-2.49 2.294-4.508 5.146-4.508Zm0 213.946c2.835 0 5.147 2.018 5.147 4.508s-2.312 4.492-5.147 4.492c-2.834 0-5.165-2.035-5.146-4.508 0-2.474 2.294-4.492 5.146-4.492ZM188.99 563.366c2.816-.374 5.408 1.335 5.837 3.792.429 2.441-1.511 4.735-4.289 5.11-2.834.374-5.445-1.335-5.892-3.792-.429-2.441 1.51-4.736 4.344-5.11Zm36.509 211.538c2.834-.374 5.426 1.318 5.855 3.775.429 2.458-1.529 4.736-4.326 5.126-2.815.375-5.444-1.318-5.873-3.791-.429-2.441 1.51-4.736 4.326-5.11h.018Zm-55.136-207.828c2.741-.732 5.613.603 6.433 2.978.839 2.376-.69 4.882-3.394 5.615-2.722.732-5.612-.619-6.451-2.995-.82-2.375.69-4.865 3.431-5.614l-.019.016Zm72.253 204.411c2.723-.733 5.594.618 6.433 2.994.839 2.376-.69 4.866-3.412 5.614-2.722.732-5.613-.586-6.452-2.978-.82-2.376.69-4.882 3.431-5.63Zm-90.022-198.341c2.573-1.074 5.631-.13 6.861 2.1 1.231 2.229.149 4.914-2.386 6.005-2.574 1.057-5.65.13-6.899-2.116-1.231-2.229-.15-4.915 2.424-5.989Zm106.337 192.742c2.574-1.057 5.65-.113 6.862 2.116 1.231 2.213.168 4.898-2.386 5.989-2.574 1.074-5.65.13-6.899-2.116-1.231-2.229-.15-4.931 2.405-6.005l.018.016Zm-122.876-184.41c2.33-1.399 5.537-.862 7.16 1.188 1.585 2.035.988 4.834-1.362 6.233-2.349 1.4-5.537.863-7.16-1.172-1.603-2.066-.969-4.849 1.362-6.249ZM274.128 758.24c2.349-1.383 5.538-.863 7.16 1.188 1.585 2.05.97 4.849-1.361 6.249-2.35 1.399-5.557.846-7.16-1.172-1.585-2.066-.988-4.866 1.361-6.265Zm-152.99-166.379c2.088-1.693 5.333-1.579 7.272.228 1.939 1.822 1.808 4.67-.28 6.379-2.088 1.66-5.351 1.578-7.272-.261-1.939-1.79-1.827-4.654.261-6.346h.019Zm166.713 156.843c2.107-1.693 5.352-1.579 7.291.244 1.939 1.822 1.809 4.67-.28 6.363-2.088 1.676-5.37 1.578-7.272-.244-1.958-1.807-1.846-4.655.261-6.347v-.016ZM108.16 604.066c1.772-1.92 4.997-2.246 7.235-.684 2.219 1.53 2.592 4.378.802 6.314-1.772 1.937-4.997 2.246-7.235.7-2.219-1.546-2.592-4.361-.802-6.33Zm191.625 133.425c1.771-1.952 5.016-2.262 7.234-.699 2.219 1.529 2.592 4.361.802 6.297-1.771 1.953-5.016 2.262-7.234.7-2.257-1.53-2.574-4.377-.821-6.298h.019ZM97.42 617.833c1.417-2.132 4.568-2.864 7.048-1.627 2.443 1.237 3.282 3.971 1.884 6.151-1.436 2.132-4.587 2.864-7.049 1.628-2.442-1.254-3.281-4.004-1.883-6.152Zm212.284 106.981c1.418-2.131 4.55-2.864 7.03-1.627 2.461 1.253 3.282 3.987 1.883 6.151-1.454 2.132-4.587 2.865-7.048 1.628-2.461-1.253-3.3-4.003-1.865-6.152ZM89.123 632.837c1.025-2.311 4.009-3.45 6.675-2.538 2.648.895 3.953 3.515 2.909 5.809-1.044 2.311-4.046 3.45-6.694 2.539-2.61-.895-3.934-3.515-2.89-5.826v.016Zm228.17 78.178c1.045-2.295 4.028-3.45 6.676-2.523 2.647.895 3.971 3.515 2.89 5.81-1.026 2.311-4.009 3.45-6.657 2.555-2.629-.912-3.934-3.532-2.909-5.842ZM83.492 648.753c.633-2.409 3.393-3.938 6.153-3.385 2.778.553 4.512 2.978 3.878 5.403-.634 2.408-3.412 3.938-6.153 3.368-2.778-.553-4.513-2.978-3.879-5.386Zm238.966 47.648c.634-2.408 3.394-3.938 6.172-3.385 2.778.537 4.512 2.962 3.878 5.387-.634 2.408-3.412 3.938-6.171 3.368-2.779-.553-4.513-2.961-3.879-5.37ZM80.657 665.221c.224-2.489 2.686-4.328 5.538-4.133 2.835.179 4.942 2.36 4.736 4.833-.205 2.457-2.703 4.313-5.537 4.134-2.835-.196-4.96-2.36-4.737-4.834Zm244.449 16.03c.224-2.474 2.685-4.329 5.538-4.134 2.834.179 4.941 2.344 4.736 4.833-.224 2.458-2.704 4.313-5.538 4.134-2.815-.195-4.96-2.36-4.736-4.833ZM80.657 681.885c-.223-2.473 1.92-4.638 4.755-4.817 2.853-.179 5.296 1.676 5.52 4.134.204 2.473-1.921 4.638-4.755 4.833-2.816.179-5.296-1.676-5.52-4.15Zm244.449-15.948c-.205-2.489 1.921-4.638 4.773-4.817 2.835-.179 5.296 1.677 5.501 4.134.205 2.49-1.921 4.654-4.755 4.833-2.815.179-5.314-1.676-5.519-4.15ZM83.492 698.354c-.616-2.441 1.118-4.833 3.878-5.387 2.778-.537 5.538.977 6.172 3.385.634 2.425-1.119 4.834-3.897 5.371-2.741.553-5.52-.961-6.153-3.369Zm239.004-47.567c-.616-2.425 1.137-4.833 3.878-5.37 2.778-.554 5.538.976 6.153 3.384.634 2.425-1.081 4.817-3.86 5.371-2.759.569-5.537-.96-6.171-3.385ZM89.123 714.253c-1.026-2.327.28-4.915 2.927-5.826 2.648-.911 5.65.228 6.694 2.539 1.025 2.311-.261 4.914-2.927 5.826-2.648.895-5.631-.228-6.676-2.539h-.018Zm228.226-78.112c-1.025-2.311.261-4.931 2.909-5.826 2.648-.911 5.631.244 6.675 2.555 1.044 2.311-.279 4.931-2.908 5.826-2.648.895-5.65-.244-6.676-2.555Zm-219.947 93.1c-1.418-2.132-.579-4.866 1.901-6.135 2.462-1.221 5.594-.488 7.011 1.643 1.417 2.165.597 4.915-1.902 6.152-2.461 1.236-5.612.488-7.03-1.66h.02Zm212.34-106.916c-1.417-2.132-.578-4.882 1.902-6.119 2.442-1.237 5.593-.505 7.01 1.627 1.418 2.165.579 4.915-1.901 6.152-2.443 1.236-5.594.488-7.011-1.66ZM108.16 743.024c-1.753-1.936-1.398-4.784.821-6.314 2.237-1.546 5.463-1.236 7.234.716 1.772 1.937 1.399 4.768-.82 6.298-2.219 1.546-5.463 1.237-7.235-.7ZM299.859 609.68c-1.752-1.936-1.398-4.768.821-6.314 2.219-1.546 5.463-1.22 7.234.7 1.772 1.953 1.399 4.784-.82 6.33-2.219 1.53-5.463 1.221-7.235-.716ZM121.138 755.213c-2.089-1.676-2.2-4.524-.261-6.346 1.939-1.823 5.183-1.921 7.272-.245 2.088 1.693 2.2 4.541.261 6.347-1.939 1.823-5.184 1.92-7.272.228v.016Zm166.788-156.778c-2.107-1.676-2.2-4.54-.261-6.33 1.939-1.823 5.183-1.92 7.272-.244 2.088 1.692 2.2 4.54.279 6.346-1.939 1.823-5.183 1.921-7.271.228h-.019ZM136.017 765.645c-2.349-1.4-2.964-4.215-1.361-6.249 1.585-2.051 4.811-2.588 7.179-1.172 2.349 1.383 2.946 4.198 1.324 6.249-1.604 2.034-4.811 2.571-7.142 1.172Zm138.167-176.713c-2.35-1.416-2.965-4.199-1.343-6.249 1.604-2.067 4.792-2.571 7.16-1.172 2.35 1.4 2.965 4.199 1.343 6.249-1.604 2.034-4.829 2.571-7.16 1.172ZM152.538 773.976c-2.555-1.057-3.618-3.775-2.387-5.988 1.249-2.246 4.326-3.174 6.862-2.083 2.573 1.074 3.636 3.775 2.386 5.988-1.212 2.214-4.326 3.157-6.861 2.1v-.017Zm106.449-192.709c-2.554-1.074-3.617-3.759-2.386-6.005 1.249-2.23 4.326-3.173 6.861-2.099 2.574 1.074 3.636 3.775 2.387 6.005-1.212 2.229-4.326 3.157-6.862 2.083v.016ZM170.307 780.079c-2.722-.732-4.232-3.238-3.412-5.631.858-2.376 3.729-3.71 6.451-2.961 2.723.732 4.233 3.238 3.413 5.63-.858 2.376-3.748 3.694-6.47 2.962h.018Zm72.365-204.41c-2.741-.732-4.251-3.255-3.412-5.614.839-2.36 3.729-3.711 6.451-2.962 2.704.716 4.233 3.238 3.394 5.614-.839 2.376-3.729 3.694-6.433 2.962ZM188.916 783.805c-2.816-.39-4.736-2.668-4.326-5.126.429-2.457 3.058-4.149 5.874-3.775 2.796.391 4.736 2.669 4.325 5.126-.428 2.474-3.058 4.134-5.873 3.792v-.017Zm36.639-211.537c-2.797-.358-4.717-2.653-4.326-5.126.429-2.441 3.058-4.134 5.874-3.76 2.815.391 4.755 2.669 4.326 5.126-.448 2.442-3.058 4.134-5.874 3.776v-.016Zm-12.399-66.152c0 2.474-2.312 4.492-5.147 4.492-2.834 0-5.165-2.018-5.165-4.492 0-2.473 2.331-4.507 5.165-4.491 2.835 0 5.147 2.001 5.147 4.491Zm0 334.939c0 2.474-2.312 4.492-5.147 4.492-2.834 0-5.165-2.018-5.165-4.492 0-2.473 2.331-4.507 5.165-4.491 2.835 0 5.147 2.001 5.147 4.491ZM193.708 506.507c.298 2.474-1.79 4.687-4.606 4.931-2.815.244-5.351-1.562-5.631-4.02-.298-2.473 1.772-4.686 4.606-4.931 2.834-.244 5.351 1.563 5.631 4.02Zm38.821 333.23c.298 2.458-1.772 4.671-4.606 4.931-2.815.228-5.351-1.562-5.65-4.036-.279-2.457 1.809-4.67 4.625-4.914 2.815-.244 5.351 1.562 5.631 4.019Zm-58.12-331.114c.578 2.424-1.212 4.816-3.99 5.321-2.778.488-5.519-1.074-6.097-3.499-.597-2.425 1.23-4.801 4.009-5.305 2.759-.504 5.5 1.074 6.078 3.499v-.016Zm77.269 328.087c.578 2.441-1.231 4.817-4.009 5.322-2.778.488-5.5-1.074-6.097-3.499-.559-2.441 1.231-4.817 4.009-5.321 2.778-.521 5.519 1.057 6.078 3.482l.019.016Zm-96.213-324.28c.839 2.36-.653 4.899-3.375 5.631-2.704.749-5.612-.569-6.451-2.962-.84-2.376.652-4.882 3.393-5.63 2.704-.733 5.613.586 6.452 2.945l-.019.016Zm114.896 319.594c.839 2.359-.652 4.882-3.393 5.614-2.704.749-5.594-.553-6.433-2.946-.839-2.375.653-4.898 3.375-5.63 2.722-.732 5.612.569 6.451 2.945v.017Zm-133.3-314.126c1.119 2.279-.074 4.931-2.703 5.908-2.611.992-5.65-.066-6.769-2.376-1.137-2.262.075-4.915 2.723-5.891 2.61-.977 5.631.081 6.749 2.359ZM288.392 825.71c1.119 2.262-.075 4.93-2.704 5.891-2.61.992-5.649-.066-6.768-2.36-1.138-2.262.093-4.931 2.722-5.907 2.611-.977 5.631.081 6.75 2.376ZM119.385 524.961c1.361 2.181.466 4.898-2.014 6.103-2.461 1.204-5.612.423-6.992-1.758-1.38-2.148-.485-4.898 2.014-6.103 2.498-1.171 5.612-.406 6.992 1.758Zm186.236 292.872c1.38 2.181.466 4.899-2.014 6.103-2.48 1.204-5.612.407-6.992-1.774-1.38-2.164-.485-4.898 1.995-6.103 2.499-1.188 5.612-.423 7.011 1.774ZM102.622 533.537c1.622 2.034 1.063 4.833-1.305 6.249-2.33 1.432-5.538.928-7.16-1.123-1.622-2.018-1.044-4.833 1.287-6.233 2.349-1.432 5.537-.927 7.178 1.123v-.016ZM321.824 808.46c1.641 2.05 1.044 4.849-1.286 6.249-2.35 1.432-5.557.927-7.179-1.107-1.604-2.05-1.026-4.849 1.287-6.249 2.349-1.432 5.556-.927 7.178 1.123v-.016ZM86.922 543.561c1.846 1.888 1.604 4.736-.559 6.331-2.163 1.611-5.389 1.399-7.253-.488-1.846-1.888-1.604-4.736.56-6.331 2.162-1.643 5.425-1.416 7.252.488ZM336.89 797.719c1.846 1.888 1.604 4.72-.559 6.347-2.163 1.611-5.389 1.399-7.253-.504-1.846-1.872-1.604-4.72.559-6.331 2.163-1.611 5.407-1.416 7.253.488ZM72.49 554.92c2.07 1.709 2.163 4.541.168 6.347-1.958 1.806-5.202 1.888-7.272.163-2.05-1.709-2.144-4.541-.167-6.363 1.957-1.79 5.239-1.855 7.271-.147Zm278.124 230.79c2.032 1.708 2.144 4.572.167 6.362-1.957 1.807-5.239 1.872-7.272.163-2.051-1.708-2.144-4.54-.167-6.379 1.958-1.774 5.202-1.855 7.272-.146ZM59.438 567.483c2.238 1.514 2.648 4.345.932 6.298-1.752 1.969-5.015 2.327-7.253.798-2.237-1.514-2.648-4.345-.895-6.282 1.734-1.969 4.979-2.343 7.216-.814Zm303.445 205.061c2.256 1.514 2.666 4.345.932 6.298-1.734 1.969-4.979 2.327-7.235.814-2.237-1.53-2.647-4.361-.913-6.298 1.734-1.969 4.997-2.343 7.216-.814ZM47.896 581.137c2.406 1.301 3.152 4.1 1.66 6.216-1.53 2.083-4.717 2.734-7.104 1.416-2.424-1.302-3.151-4.085-1.641-6.184 1.51-2.116 4.68-2.734 7.104-1.448h-.019Zm325.652 177.249c2.424 1.302 3.151 4.069 1.66 6.201-1.529 2.099-4.699 2.733-7.104 1.432-2.406-1.319-3.152-4.085-1.66-6.201 1.529-2.099 4.699-2.733 7.104-1.432ZM38.014 595.75c2.555 1.09 3.617 3.792 2.35 6.021-1.25 2.23-4.345 3.157-6.9 2.067-2.554-1.107-3.617-3.808-2.349-6.037 1.25-2.23 4.345-3.141 6.9-2.051Zm344.522 147.567c2.535 1.091 3.598 3.792 2.349 6.021-1.249 2.23-4.344 3.157-6.899 2.051-2.554-1.09-3.617-3.792-2.331-6.021 1.231-2.246 4.345-3.141 6.881-2.051ZM29.866 611.161c2.666.846 4.046 3.434 3.039 5.777-.988 2.327-3.953 3.515-6.638 2.637-2.666-.83-4.027-3.434-3.02-5.778.988-2.327 3.952-3.515 6.619-2.636Zm359.848 116.388c2.667.878 4.046 3.466 3.04 5.777-.97 2.327-3.953 3.515-6.62 2.652-2.685-.846-4.027-3.466-3.039-5.777 1.007-2.327 3.953-3.515 6.619-2.652ZM23.545 627.207c2.74.618 4.419 3.075 3.692 5.467-.727 2.409-3.524 3.841-6.284 3.206-2.722-.618-4.382-3.059-3.673-5.468.708-2.392 3.524-3.824 6.284-3.205h-.02Zm371.502 84.035c2.741.619 4.382 3.076 3.673 5.468-.708 2.409-3.524 3.857-6.265 3.206-2.741-.618-4.4-3.059-3.673-5.484.709-2.392 3.524-3.824 6.265-3.206v.016ZM19.126 643.724c2.797.391 4.736 2.685 4.307 5.126-.429 2.458-3.058 4.134-5.873 3.743-2.797-.374-4.755-2.669-4.308-5.126.43-2.441 3.077-4.15 5.874-3.759v.016Zm379.333 50.838c2.797.375 4.736 2.669 4.289 5.126-.429 2.441-3.058 4.118-5.874 3.743-2.797-.374-4.736-2.652-4.307-5.126.429-2.441 3.077-4.133 5.874-3.743h.018ZM16.627 660.551c2.853.13 5.035 2.245 4.885 4.735-.13 2.474-2.573 4.378-5.426 4.248-2.852-.131-4.997-2.23-4.866-4.72.149-2.473 2.554-4.377 5.407-4.263Zm383.287 17.054c2.834.147 5.015 2.246 4.885 4.736-.149 2.473-2.573 4.377-5.426 4.247-2.853-.13-5.016-2.229-4.867-4.719.149-2.49 2.555-4.394 5.408-4.264ZM16.105 677.508c2.834-.114 5.258 1.806 5.389 4.28.149 2.49-2.033 4.589-4.886 4.703-2.834.114-5.24-1.774-5.388-4.264-.13-2.49 2.032-4.589 4.885-4.719Zm383.305-16.843c2.834-.114 5.24 1.79 5.389 4.264.149 2.473-2.033 4.589-4.885 4.686-2.835.13-5.259-1.774-5.408-4.263-.112-2.474 2.051-4.573 4.904-4.703v.016ZM17.54 694.432c2.835-.374 5.427 1.302 5.874 3.776.429 2.441-1.529 4.735-4.326 5.126-2.815.374-5.426-1.318-5.873-3.776-.429-2.473 1.51-4.752 4.326-5.126Zm379.39-50.61c2.797-.374 5.426 1.318 5.874 3.775.429 2.441-1.511 4.736-4.326 5.143-2.834.374-5.445-1.335-5.874-3.776-.447-2.457 1.473-4.752 4.326-5.126v-.016ZM20.953 711.129c2.74-.619 5.556.83 6.265 3.238.727 2.392-.932 4.85-3.692 5.468-2.74.618-5.556-.846-6.284-3.238-.708-2.393.97-4.85 3.71-5.468Zm371.558-83.808c2.76-.619 5.575.83 6.284 3.238.708 2.376-.951 4.833-3.711 5.468-2.741.618-5.575-.846-6.283-3.238-.709-2.409.969-4.85 3.71-5.468ZM26.267 727.467c2.666-.83 5.612.342 6.62 2.669.969 2.327-.392 4.915-3.059 5.777-2.666.863-5.612-.325-6.619-2.653-.988-2.327.373-4.93 3.058-5.793Zm359.942-116.192c2.666-.862 5.612.342 6.619 2.669.988 2.343-.392 4.915-3.039 5.761-2.685.879-5.631-.309-6.638-2.637-.97-2.327.41-4.93 3.076-5.777l-.018-.016ZM33.427 743.22c2.555-1.091 5.631-.163 6.88 2.067 1.25 2.229.206 4.93-2.368 6.004-2.535 1.091-5.63.179-6.88-2.05-1.25-2.229-.186-4.931 2.368-6.021ZM378.08 595.848c2.536-1.074 5.631-.163 6.88 2.083 1.25 2.213.187 4.915-2.368 6.005-2.554 1.09-5.649.179-6.899-2.067-1.249-2.213-.186-4.914 2.387-6.021ZM42.396 758.273c2.405-1.318 5.575-.684 7.104 1.448 1.51 2.099.746 4.866-1.66 6.2-2.386 1.318-5.593.651-7.085-1.432-1.51-2.099-.783-4.898 1.66-6.2l-.02-.016Zm325.782-177.055c2.405-1.302 5.575-.667 7.104 1.465 1.511 2.099.746 4.866-1.697 6.2-2.386 1.302-5.556.651-7.066-1.448-1.511-2.116-.784-4.882 1.64-6.217h.019ZM53.043 772.463c2.256-1.53 5.482-1.172 7.216.797 1.734 1.97 1.324 4.785-.933 6.315-2.237 1.513-5.482 1.155-7.197-.83-1.753-1.969-1.343-4.768.914-6.282Zm303.612-204.882c2.237-1.53 5.482-1.155 7.216.797 1.734 1.986 1.324 4.801-.932 6.315-2.238 1.513-5.501 1.171-7.216-.83-1.734-1.953-1.343-4.769.932-6.282ZM65.312 785.645c2.05-1.725 5.314-1.66 7.272.162 1.957 1.807 1.883 4.638-.187 6.347-2.07 1.709-5.333 1.644-7.29-.179-1.958-1.774-1.884-4.622.205-6.33Zm278.291-230.66c2.069-1.708 5.314-1.643 7.272.163 1.957 1.807 1.883 4.638-.187 6.347-2.051 1.709-5.333 1.643-7.29-.163-1.958-1.79-1.884-4.638.205-6.347ZM79.035 797.654c1.846-1.887 5.11-2.099 7.253-.472 2.182 1.611 2.387 4.459.56 6.331-1.865 1.887-5.11 2.083-7.272.472-2.163-1.595-2.405-4.459-.54-6.331Zm250.136-254.027c1.846-1.872 5.109-2.083 7.253-.472 2.182 1.611 2.387 4.459.559 6.346-1.846 1.872-5.09 2.083-7.272.456-2.144-1.611-2.386-4.443-.54-6.33ZM94.064 808.411c1.64-2.05 4.83-2.539 7.16-1.139 2.331 1.432 2.909 4.247 1.286 6.265-1.64 2.051-4.829 2.539-7.16 1.123-2.35-1.432-2.908-4.215-1.286-6.249Zm219.425-274.809c1.641-2.05 4.83-2.538 7.179-1.139 2.331 1.432 2.89 4.231 1.268 6.265-1.641 2.035-4.829 2.539-7.16 1.123-2.331-1.416-2.909-4.215-1.287-6.249ZM110.286 817.752c1.38-2.165 4.512-2.946 6.992-1.741 2.499 1.204 3.375 3.954 1.995 6.102-1.361 2.164-4.493 2.962-6.992 1.758-2.499-1.205-3.375-3.939-1.995-6.119ZM296.745 525.01c1.362-2.165 4.513-2.946 6.993-1.741 2.48 1.187 3.375 3.938 2.013 6.102-1.398 2.164-4.531 2.946-7.01 1.741-2.499-1.204-3.375-3.938-1.996-6.102ZM127.478 825.661c1.137-2.295 4.158-3.336 6.787-2.36 2.591.977 3.803 3.629 2.685 5.907-1.138 2.262-4.177 3.32-6.787 2.36-2.592-.993-3.804-3.629-2.685-5.907Zm151.573-307.73c1.137-2.262 4.158-3.32 6.787-2.343 2.591.976 3.822 3.629 2.685 5.907-1.138 2.262-4.158 3.32-6.787 2.359-2.611-.992-3.804-3.629-2.685-5.923ZM145.508 831.975c.839-2.36 3.748-3.678 6.47-2.929 2.704.732 4.177 3.271 3.338 5.63-.858 2.376-3.729 3.678-6.452 2.929-2.703-.748-4.214-3.287-3.356-5.63Zm115.12-319.512c.858-2.376 3.748-3.678 6.452-2.929 2.722.732 4.214 3.271 3.375 5.63-.877 2.376-3.748 3.678-6.47 2.946-2.704-.749-4.214-3.287-3.357-5.631v-.016ZM164.21 836.678c.597-2.409 3.3-3.971 6.097-3.466 2.778.504 4.587 2.864 3.99 5.305-.559 2.424-3.281 4.003-6.078 3.482-2.778-.504-4.568-2.88-4.009-5.321Zm77.511-328.039c.597-2.425 3.301-3.987 6.079-3.483 2.778.521 4.605 2.881 4.009 5.305-.578 2.425-3.301 3.987-6.098 3.483-2.778-.505-4.568-2.881-3.99-5.305ZM183.322 839.705c.28-2.458 2.815-4.264 5.65-3.987 2.834.244 4.866 2.457 4.587 4.914-.28 2.474-2.816 4.264-5.669 4.004-2.797-.245-4.866-2.458-4.568-4.931Zm39.101-333.198c.279-2.457 2.815-4.264 5.649-4.003 2.834.26 4.885 2.473 4.606 4.931-.28 2.457-2.834 4.263-5.669 4.003-2.815-.244-4.885-2.457-4.586-4.931Zm-77.791 279.056-12.363 19.496-8.484-4.215c-4.195-2.083-5.239-4.833-3.095-8.218 1.529-2.376 3.711-3.157 6.601-2.36-1.361-.927-2.126-1.953-2.275-3.043-.205-1.09.205-2.441 1.212-4.036 2.182-3.417 5.519-4.036 10.013-1.774l8.372 4.166.019-.016Zm-11.953 9.211-3.039-1.497c-.802-.391-1.547-.488-2.293-.261-.746.196-1.361.684-1.846 1.449-.429.699-.56 1.399-.373 2.131.224.733.69 1.302 1.51 1.709l2.89 1.432 3.151-4.947v-.016Zm5.389-8.527-2.853-1.416c-1.939-.977-3.468-.537-4.661 1.302-1.156 1.839-.727 3.287 1.324 4.28l2.685 1.367 3.505-5.533ZM77.208 724.229l-23.7 8.267-3.15-7.323c-1.1-2.507-.989-4.557.298-6.184 1.324-1.628 4.344-3.239 9.08-4.899 2.014-.716 3.692-1.204 5.035-1.497 1.324-.276 2.592-.293 3.822-.049 1.007.098 2.014.505 3.04 1.205 1.007.699 1.827 1.757 2.442 3.157l3.133 7.29v.033Zm-5.538-3.092-.932-2.165c-.485-1.155-1.343-1.757-2.573-1.887-1.231-.114-3.786.488-7.683 1.871-3.058 1.058-4.978 2.002-5.724 2.832-.783.83-.914 1.773-.448 2.831l.97 2.246 16.371-5.728h.019Zm-19.317-25.94c-4.326.472-7.328.195-9.08-.863-1.754-1.057-2.798-2.896-3.096-5.565-.317-2.604.26-4.605 1.697-6.037 1.435-1.433 4.307-2.376 8.595-2.848l1.846-.212 1.958-.211c4.4-.489 7.44-.147 9.1 1.025 1.64 1.171 2.591 2.945 2.908 5.354.317 2.799-.317 4.882-1.902 6.265-1.622 1.351-4.288 2.229-8.036 2.636l-2.238.261-1.752.179v.016Zm1.286-4.931c3.487-.39 5.874-.814 7.142-1.302 1.268-.537 1.827-1.399 1.66-2.636-.131-1.253-.915-1.937-2.257-2.164-1.38-.228-3.822-.131-7.365.244-3.636.39-6.06.862-7.216 1.399-1.212.521-1.734 1.367-1.604 2.571.13 1.188.895 1.904 2.22 2.116 1.342.244 3.803.163 7.42-.228Zm11.468-18.698-25.508-.716.708-11.668 3.935.13-.43 6.981 6.49.196.428-6.721 3.916.097-.41 6.721 11.169.293-.28 4.687h-.018Zm-1.53-38.324 1.492-4.426c3.133.748 5.221 1.79 6.265 3.141 1.026 1.334 1.156 3.14.41 5.353-.838 2.523-2.256 4.215-4.232 5.078-1.977.846-4.83.846-8.54-.049l-2.443-.57-2.07-.504c-3.822-.911-6.376-2.116-7.626-3.629-1.249-1.497-1.417-3.613-.503-6.282.671-2.034 1.827-3.417 3.412-4.182 1.585-.781 3.935-.814 6.974-.097l-1.473 4.426c-1.455-.358-2.61-.456-3.524-.374-.895.097-1.455.504-1.678 1.171l-.075.179c-.317.96.075 1.79 1.137 2.474 1.1.667 3.431 1.416 7.011 2.262l1.044.244c2.947.7 5.053 1.009 6.34.879 1.25-.13 2.07-.7 2.424-1.66l.075-.212c.447-1.35-1.026-2.424-4.42-3.222Zm-.69-13.442c-3.915-1.578-6.283-3.238-7.178-4.931-.82-1.724-.597-3.775.764-6.167 1.343-2.327 3.04-3.776 5.09-4.313 2.108-.553 5.11 0 9.025 1.563l1.716.716 1.753.716c4.008 1.643 6.376 3.319 7.085 5.11.69 1.757.448 3.726-.783 5.907-1.454 2.522-3.263 3.987-5.426 4.41-2.182.39-4.997-.081-8.39-1.481l-2.07-.83-1.623-.683.038-.017Zm4.084-3.564c3.189 1.302 5.482 2.035 6.843 2.214 1.38.13 2.387-.358 3.02-1.465.635-1.107.43-2.067-.615-2.88-1.044-.83-3.17-1.888-6.395-3.19-3.319-1.367-5.65-2.083-6.955-2.197-1.324-.114-2.312.374-2.927 1.448-.616 1.075-.43 2.035.578 2.848.988.814 3.15 1.904 6.432 3.239l.02-.017ZM67.064 592.74l4.308-5.062 18.422 4.053-14.283-8.902 3.002-3.515 20.772 12.97-4.214 4.914-19.336-4.458 15.084 9.422-3.002 3.515-20.752-12.937ZM85.822 572.186l12.773-10.529 2.964 2.686-4.437 3.629 14.842 13.295-3.897 3.206-14.842-13.279-4.42 3.661-2.983-2.669ZM121.567 574.107l-14.6-18.275 8.185-4.834c1.417-.862 2.89-1.188 4.401-1.025 1.547.163 3.002 1.123 4.4 2.88 2.051 2.588 1.902 4.85-.466 6.819 1.566-.683 2.853-.911 3.916-.7 1.044.196 2.144 1.009 3.281 2.425 2.07 2.604 3.58 4.166 4.494 4.67l-4.382 2.588c-.522-.179-1.081-.618-1.659-1.302-.615-.7-1.1-1.269-1.436-1.725-1.231-1.644-2.256-2.701-3.151-3.108-.858-.407-1.995-.212-3.45.635l-1.156.699 6.079 7.633-4.419 2.62h-.037Zm-3.916-13.052 1.939-1.171c.783-.44 1.156-1.009 1.1-1.758-.037-.716-.335-1.481-.951-2.246-1.249-1.562-2.647-1.887-4.176-.992l-1.921 1.155 4.009 5.012ZM134.731 551.731c-1.828-3.418-2.462-6.021-1.865-7.811.615-1.807 2.294-3.271 5.09-4.378 2.723-1.074 5.072-1.237 7.049-.504 1.995.716 3.915 2.799 5.743 6.232l.801 1.497.821 1.546c1.883 3.499 2.424 6.152 1.697 7.925-.746 1.742-2.369 3.125-4.904 4.118-2.928 1.155-5.389 1.285-7.347.406-1.995-.895-3.766-2.815-5.37-5.793l-.97-1.806-.745-1.416v-.016Zm5.743-.505c1.473 2.783 2.722 4.622 3.617 5.517.97.879 2.07 1.058 3.393.553 1.287-.537 1.828-1.383 1.623-2.587-.187-1.204-1.026-3.239-2.536-6.054-1.548-2.88-2.797-4.752-3.748-5.565-.932-.83-2.032-.977-3.282-.472-1.249.472-1.79 1.334-1.641 2.538.168 1.156 1.007 3.206 2.555 6.07h.019Zm16.911-17.917 5.165-1.253 5.818 17.852 7.738-1.904 1.175 3.597-12.922 3.14-6.992-21.432h.018Zm37.292 16.046-1.379-22.262 13.387-.602.206 3.417-8.018.391.354 5.647 7.701-.358.224 3.417-7.72.358.615 9.731-5.351.261h-.019Zm21.294-13.198c.466-3.743 1.51-6.265 3.095-7.551 1.585-1.302 3.879-1.774 6.937-1.497 2.964.277 5.09 1.156 6.358 2.685 1.268 1.497 1.659 4.166 1.212 7.909l-.224 1.611-.224 1.709c-.466 3.84-1.566 6.363-3.263 7.551-1.696 1.155-3.915 1.611-6.656 1.367-3.226-.31-5.389-1.27-6.545-2.897-1.175-1.644-1.529-4.101-1.137-7.372l.242-1.953.205-1.562Zm5.24 2.116c-.392 3.043-.448 5.158-.187 6.346.28 1.172 1.156 1.839 2.573 1.986 1.399.114 2.368-.391 2.909-1.514.559-1.123 1.026-3.222 1.417-6.314.41-3.173.448-5.338.131-6.428-.299-1.139-1.156-1.774-2.536-1.904-1.361-.114-2.331.374-2.89 1.465-.56 1.074-1.044 3.206-1.436 6.363h.019Zm18.235 13.474 7.123-21.416 9.51 2.376c1.64.391 2.89 1.172 3.692 2.278.82 1.123.913 2.718.223 4.785-.988 3.01-3.132 4.361-6.395 4.036 1.585.602 2.61 1.318 3.095 2.164.485.846.429 2.083-.112 3.743-1.007 3.043-1.454 5.045-1.342 5.94l-5.072-1.237c-.168-.472-.149-1.123.074-1.937.243-.862.448-1.529.653-2.066.709-1.856.951-3.206.783-4.069-.149-.846-1.081-1.464-2.722-1.904l-1.343-.325-2.983 8.918-5.146-1.27-.038-.016Zm9.23-10.968 2.275.569c.876.212 1.622.082 2.256-.407.634-.488 1.1-1.171 1.399-2.066.615-1.839 0-2.978-1.772-3.434l-2.2-.553-1.958 5.874v.017Zm37.796 19.512 4.568 2.294c-1.641 2.441-3.356 3.938-5.147 4.492-1.771.537-3.803.244-6.115-.928-2.611-1.334-4.14-2.913-4.569-4.752-.447-1.855.317-4.247 2.238-7.111l1.305-1.904 1.1-1.611c2.014-2.995 4.046-4.817 6.041-5.501 2.033-.683 4.438-.325 7.198 1.074 2.088 1.058 3.356 2.344 3.804 3.841.447 1.513-.131 3.466-1.734 5.858l-4.55-2.294c.764-1.123 1.193-2.067 1.305-2.832.149-.797-.149-1.351-.839-1.692l-.186-.098c-1.007-.504-2.014-.374-3.058.374-1.026.749-2.499 2.523-4.401 5.322l-.522.781c-1.566 2.311-2.442 4.019-2.629 5.093-.168 1.074.224 1.904 1.231 2.425l.205.114c1.398.7 3.002-.277 4.773-2.929l-.018-.016ZM292.308 572.707l16.464-17.038 7.645 5.468c1.324.944 2.107 2.083 2.349 3.385.261 1.302-.429 2.782-2.013 4.41-2.313 2.392-4.886 2.88-7.757 1.448 1.193 1.107 1.827 2.132 1.846 3.043.056.944-.56 2.067-1.828 3.369-2.349 2.441-3.691 4.101-4.008 4.979l-4.065-2.912c.056-.489.373-1.075.969-1.742a27.19 27.19 0 0 1 1.548-1.66c1.51-1.464 2.368-2.62 2.592-3.45.242-.83-.28-1.725-1.641-2.668l-1.1-.798-6.862 7.095-4.158-2.961.019.032Zm13.555-6.77 1.828 1.302c.727.537 1.473.668 2.274.456.821-.228 1.548-.7 2.257-1.432 1.398-1.448 1.398-2.701-.038-3.71l-1.808-1.302-4.513 4.67v.016ZM328.966 571.373l3.673 3.384-18.907 15.004-3.655-3.417 18.889-14.971ZM332.9 598.549l3.095 3.743c-2.666 1.595-4.941 2.343-6.824 2.197-1.883-.146-3.617-1.155-5.165-3.043-1.771-2.132-2.424-4.117-1.939-5.956.466-1.839 2.312-3.727 5.444-5.631l2.089-1.253 1.771-1.074c3.263-1.969 5.985-2.913 8.13-2.799 2.181.114 4.214 1.302 6.078 3.564 1.399 1.709 1.958 3.336 1.66 4.882-.299 1.53-1.772 3.092-4.363 4.687l-3.096-3.743c1.268-.749 2.089-1.432 2.555-2.099.485-.635.503-1.253.037-1.823l-.112-.147c-.69-.813-1.678-1.074-2.964-.764-1.306.293-3.487 1.383-6.564 3.222l-.839.521c-2.554 1.545-4.158 2.766-4.829 3.661-.671.911-.671 1.806-.037 2.653l.13.162c.951 1.156 2.872.847 5.762-.911l-.019-.049ZM347.817 610.608l12.847.862 2.573 4.573-13.481-1.269-9.584 10.773-2.685-4.719 9.248-9.764-11.989 4.93-2.387-4.182 23.103-9.52 2.386 4.215-10.031 4.101ZM342.465 630.998l24.538-6.118 4.121 11.635-3.785.944-2.554-7.16-5.967 1.481 2.349 6.59-3.803.96-2.331-6.607-7.216 1.79 2.592 7.389-3.804.943-4.158-11.83.018-.017Zm30.99 14.223 2.48 15.183-4.251.456-.858-5.272-21.107 2.213-.765-4.622 21.107-2.229-.876-5.289 4.251-.456.019.016Zm2.741 35.395-.336 4.687-25.433-1.904.336-4.687 25.433 1.904Zm-1.454 14.972-1.455 6.151-18.534 2.49 17.098 3.45-1.006 4.28-24.874-4.996 1.417-6.038 19.541-2.392-18.087-3.645 1.007-4.313 24.874 5.029.019-.016Zm-12.698 37.396-2.238 4.247-22.99-9.731 2.256-4.231 22.972 9.715ZM290.499 775.783l6.638 22.473-6.023 3.157-18.813-16.143 4.829-2.506 4.121 3.662 6.302-3.304-1.585-4.996 4.512-2.343h.019Zm-1.883 10.805-4.401 2.295 7.757 7.128-3.356-9.423ZM208.009 581.43l30.841 54.564 69.046 8.755-49.953 42.49 11.784 59.984-61.718-28.316-61.737 28.316 11.785-59.984-49.934-42.49 69.009-8.755 30.859-54.564h.018Z" fill="#DAB16F"/></g><g filter="url(#c)"><circle cx="53" cy="29" r="239" fill="#1D3B8D"/></g><g opacity=".8" filter="url(#d)"><circle cx="423" cy="987" r="239" fill="#C65142"/></g><g opacity=".27" fill-rule="evenodd" clip-rule="evenodd"><path d="M292.303 418.032c-34.086-37.547-69.704-76.791 52.934-297.252 71.647-128.814 47.638-228.438 20.179-284.415l.709.365c27.362 56.26 50.884 155.807-20.62 284.362-122.356 219.952-86.887 259.039-52.937 296.436 42.613 46.946 82.789 91.315-191.4 483.677l-.358-.185C374.782 509 334.762 464.792 292.31 418.035l-.007-.003Z" fill="url(#e)"/><path d="M296.113 421.356c-34.086-37.546-69.704-76.79 52.934-297.251 72.434-130.21 47.095-230.613 19.276-286.242l.709.366c27.739 55.907 52.574 156.238-19.717 286.188-122.356 219.952-86.888 259.039-52.937 296.436 42.574 46.899 82.725 91.228-190.695 482.679l-.357-.184C378.53 512.253 338.532 468.096 296.119 421.36l-.006-.004Z" fill="url(#f)"/><path d="M299.919 424.693c-34.087-37.547-69.704-76.791 52.934-297.251 73.255-131.682 46.512-232.876 18.331-288.104l.728.375c28.093 55.53 54.296 156.645-18.798 288.037-122.356 219.952-86.887 259.039-52.937 296.435 42.539 46.868 82.664 91.158-189.991 481.668l-.358-.184C382.266 515.5 342.292 471.382 299.919 424.693Z" fill="url(#g)"/><path d="M303.724 428.029c-34.086-37.547-69.703-76.791 52.935-297.251 74.084-133.176 45.892-235.17 17.379-289.969l.728.375c28.446 55.111 56.083 157.02-17.84 289.905-122.355 219.952-86.887 259.039-52.936 296.436 42.506 46.825 82.599 91.071-189.288 480.656l-.358-.184c271.67-389.244 231.729-433.318 189.38-479.968Z" fill="url(#h)"/><path d="M307.537 431.369c-34.086-37.547-69.704-76.791 52.934-297.251C435.41-.606 405.69-103.415 376.852-157.741l.754.389c28.771 54.664 57.892 157.378-16.867 291.781-122.356 219.952-86.887 259.039-52.937 296.436 42.468 46.778 82.542 90.988-188.578 479.647l-.357-.184c270.909-388.315 230.986-432.353 188.677-478.956l-.007-.003Z" fill="url(#i)"/><path d="M311.343 434.705c-34.086-37.547-69.704-76.791 52.934-297.251C440.1 1.144 408.795-102.495 379.646-156.3l.755.389c29.089 54.161 59.787 157.687-15.856 293.676-122.356 219.952-86.887 259.039-52.937 296.436 42.432 46.746 82.489 90.894-187.875 478.635l-.357-.184c270.146-387.4 230.245-431.387 187.967-477.947Z" fill="url(#j)"/><path d="M315.153 438.03c-34.086-37.547-69.704-76.791 52.934-297.251 76.728-137.939 43.747-242.415 14.32-295.656l.775.399c29.377 53.616 61.699 157.993-14.831 295.579-122.356 219.953-86.887 259.039-52.937 296.436 42.394 46.7 82.425 90.808-187.165 477.627l-.357-.185c269.378-386.474 229.499-430.41 187.267-476.946l-.006-.003Z" fill="url(#k)"/><path d="M318.959 441.366c-34.087-37.547-69.704-76.79 52.934-297.251 77.663-139.606 42.932-244.957 13.249-297.583l.781.403c29.643 53.019 63.702 158.238-13.763 297.491-122.355 219.953-86.887 259.039-52.936 296.436 42.358 46.668 82.346 90.74-186.466 476.626l-.357-.184c268.597-385.53 228.757-429.445 186.564-475.934l-.006-.004Z" fill="url(#l)"/><path d="M322.764 444.702c-34.086-37.547-69.703-76.79 52.935-297.251 78.638-141.37 42.046-247.588 12.138-299.53l.801.413c29.88 52.368 65.733 158.47-12.672 299.429-122.355 219.952-86.887 259.039-52.936 296.436 42.319 46.621 82.264 90.684-185.769 475.61l-.358-.185C404.719 535.04 364.925 491.149 322.764 444.702Z" fill="url(#m)"/><path d="M326.577 448.042c-34.086-37.547-69.704-76.79 52.934-297.251 79.625-143.145 41.096-250.28 11.007-301.487l.801.413c30.088 51.646 67.854 158.642-11.547 301.382-122.355 219.952-86.887 259.039-52.936 296.436 42.287 46.578 82.179 90.614-185.066 474.598l-.358-.184c267.034-383.64 227.287-427.507 185.158-473.91l.007.003Z" fill="url(#n)"/></g></g><defs><linearGradient id="i" x1="169.184" y1="335.741" x2="411.523" y2="418.388" gradientUnits="userSpaceOnUse"><stop stop-color="#698AB9"/><stop offset="1" stop-color="#879DBD" stop-opacity="0"/></linearGradient><linearGradient id="e" x1="169.184" y1="335.741" x2="411.523" y2="418.388" gradientUnits="userSpaceOnUse"><stop stop-color="#698AB9"/><stop offset="1" stop-color="#879DBD" stop-opacity="0"/></linearGradient><linearGradient id="f" x1="169.184" y1="335.741" x2="411.523" y2="418.388" gradientUnits="userSpaceOnUse"><stop stop-color="#698AB9"/><stop offset="1" stop-color="#879DBD" stop-opacity="0"/></linearGradient><linearGradient id="g" x1="169.184" y1="335.741" x2="411.523" y2="418.388" gradientUnits="userSpaceOnUse"><stop stop-color="#698AB9"/><stop offset="1" stop-color="#879DBD" stop-opacity="0"/></linearGradient><linearGradient id="h" x1="169.184" y1="335.741" x2="411.523" y2="418.388" gradientUnits="userSpaceOnUse"><stop stop-color="#698AB9"/><stop offset="1" stop-color="#879DBD" stop-opacity="0"/></linearGradient><linearGradient id="j" x1="169.184" y1="335.741" x2="411.523" y2="418.388" gradientUnits="userSpaceOnUse"><stop stop-color="#698AB9"/><stop offset="1" stop-color="#879DBD" stop-opacity="0"/></linearGradient><linearGradient id="k" x1="169.184" y1="335.741" x2="411.523" y2="418.388" gradientUnits="userSpaceOnUse"><stop stop-color="#698AB9"/><stop offset="1" stop-color="#879DBD" stop-opacity="0"/></linearGradient><linearGradient id="l" x1="169.184" y1="335.741" x2="411.523" y2="418.388" gradientUnits="userSpaceOnUse"><stop stop-color="#698AB9"/><stop offset="1" stop-color="#879DBD" stop-opacity="0"/></linearGradient><linearGradient id="m" x1="169.184" y1="335.741" x2="411.523" y2="418.388" gradientUnits="userSpaceOnUse"><stop stop-color="#698AB9"/><stop offset="1" stop-color="#879DBD" stop-opacity="0"/></linearGradient><linearGradient id="n" x1="169.184" y1="335.741" x2="411.523" y2="418.388" gradientUnits="userSpaceOnUse"><stop stop-color="#698AB9"/><stop offset="1" stop-color="#879DBD" stop-opacity="0"/></linearGradient><filter id="d" x="-306" y="258" width="1458" height="1458" filterUnits="userSpaceOnUse" color-interpolation-filters="sRGB"><feFlood flood-opacity="0" result="BackgroundImageFix"/><feBlend in="SourceGraphic" in2="BackgroundImageFix" result="shape"/><feGaussianBlur stdDeviation="245" result="effect1_foregroundBlur_12601_83349"/></filter><filter id="c" x="-676" y="-700" width="1458" height="1458" filterUnits="userSpaceOnUse" color-interpolation-filters="sRGB"><feFlood flood-opacity="0" result="BackgroundImageFix"/><feBlend in="SourceGraphic" in2="BackgroundImageFix" result="shape"/><feGaussianBlur stdDeviation="245" result="effect1_foregroundBlur_12601_83349"/></filter><clipPath id="b"><path fill="#fff" transform="translate(-67 433)" d="M0 0h550v480H0z"/></clipPath></defs></svg>